<?xml version="1.0" encoding="UTF-8"?> <svg xmlns="http://www.w3.org/2000/svg" id="Grupo_21" data-name="Grupo 21" width="25.618" height="25.618" viewBox="0 0 25.618 25.618"><path id="Trazado_109" data-name="Trazado 109" d="M12.809,0A12.809,12.809,0,1,0,25.618,12.809,12.823,12.823,0,0,0,12.809,0Zm0,23.483A10.674,10.674,0,1,1,23.483,12.809,10.686,10.686,0,0,1,12.809,23.483Zm0,0" fill="#fff"></path><path id="Trazado_110" data-name="Trazado 110" d="M127.472,66.669h-1.6V64h-2.135v2.669h-1.6A2.137,2.137,0,0,0,120,68.8v2.669a2.137,2.137,0,0,0,2.135,2.135h5.337v2.669h-5.337V75.208H120v1.067a2.137,2.137,0,0,0,2.135,2.135h1.6v2.669h2.135V78.41h1.6a2.137,2.137,0,0,0,2.135-2.135V73.607a2.137,2.137,0,0,0-2.135-2.135h-5.337V68.8l5.337,0,.051,1.038h2.084V68.8A2.137,2.137,0,0,0,127.472,66.669Zm0,0" transform="translate(-111.994 -59.73)" fill="#fff"></path></svg> 