<?xml version="1.0" encoding="UTF-8"?> <svg xmlns="http://www.w3.org/2000/svg" xmlns:xlink="http://www.w3.org/1999/xlink" version="1.1" id="Footer" x="0px" y="0px" viewBox="0 0 27 23" style="enable-background:new 0 0 27 23;" xml:space="preserve"> <style type="text/css"> .st0{fill-rule:evenodd;clip-rule:evenodd;fill:#FFFFFF;} </style> <g id="emblem" transform="translate(11.844)"> <path id="Fill-13" class="st0" d="M8,2C7.4,4.8,7.1,6.1,6.7,8.1c-0.5,2-0.9,3.8-1.5,4.6c-0.5,0.7-1.3,1.1-2.2,1.1 c-0.4,0.1-0.8,0.1-1.2,0.1c-0.4,0-0.8,0-1.2-0.1c-0.9-0.1-1.6-0.5-2.2-1.1c-0.7-0.9-1-2.7-1.5-4.6c-0.5-2-0.8-3.3-1.4-6.1 c-0.3,0-0.6,0-0.9,0.1c-0.3,0-0.7,0-1,0.1c0,0,0.4,5.8,0.5,8.2c0.2,2.6,0.5,6.9,0.8,10.1c0.5,0.1,0.9,0.1,1.4,0.1l1.3,0.2 c0.3-1.5,0.8-2.9,1.4-4.3c0.3-0.5,0.9-0.8,1.5-0.8c0.6-0.1,1.1-0.1,1.3-0.1l0,0c0.4,0,0.9,0,1.3,0.1c0.6,0,1.1,0.3,1.5,0.8 c0.6,1.4,1.1,2.8,1.4,4.3c0,0,0.4,0,1.3-0.1c0.9-0.1,1.4-0.1,1.4-0.1c0.3-3.3,0.6-7.6,0.8-10.1l0.5-8.2c-0.3-0.1-0.6-0.1-1-0.1 C8.6,2,8.3,2,8,2"></path> <path id="Fill-15" class="st0" d="M13.7,11.8c-0.1,2.1-0.4,4.1-0.8,6.1c-0.2,0.9-0.6,1.8-1.3,2.4c-0.9,0.7-2,1.2-3.1,1.3 C6.2,21.9,4,22.1,1.7,22c-2.3,0-4.5-0.1-6.8-0.4c-1.1-0.1-2.2-0.5-3.1-1.3c-0.7-0.7-1.1-1.5-1.3-2.4c-0.5-2-0.7-4.1-0.8-6.1 c-0.1-2.1-0.1-4.2,0.1-6.4c0.3-2.3,1.4-3.5,3.8-4c1.3-0.2,2.6-0.4,4-0.4c1.1-0.1,3-0.1,4.1-0.1S4.6,1,5.7,1c1.4,0,2.7,0.2,4.1,0.4 c2.4,0.4,3.5,1.6,3.8,4C13.8,7.6,13.8,9.7,13.7,11.8 M15,5.5c-0.4-3.8-2.8-4.6-4.9-5C9,0.4,7.2,0.2,5.9,0.2C4.9,0.1,2.4,0,1.6,0 s-3.3,0.1-4.3,0.1c-1.4,0.1-2.8,0.2-4.2,0.4c-2.1,0.4-4.5,1.1-4.9,5c-0.1,1-0.1,2.4-0.1,3.8c0.1,2.4,0.2,4,0.3,5.1 c0.1,1.4,0.4,2.9,0.8,4.2c0.2,1,0.8,1.9,1.6,2.6c1,0.6,2,1.1,3.2,1.3C-3.5,22.8-1,23,1.6,23c2.5,0,5.1-0.1,7.6-0.4 c1.1-0.1,2.2-0.6,3.2-1.3c0.8-0.7,1.4-1.6,1.6-2.6c0.4-1.4,0.6-2.8,0.8-4.2C14.9,12.7,15,11,15,9.3C15.1,8,15.1,6.8,15,5.5"></path> </g> </svg> 